<svg width="115" height="19" viewBox="0 0 115 19" fill="none" xmlns="http://www.w3.org/2000/svg">
<g clip-path="url(#clip0)">
<path d="M0.575 4.28785C0.191667 4.48272 0 4.77502 0 5.16477V13.7391C0 14.1289 0.191667 14.4212 0.575 14.6161L7.66667 18.9032C7.95417 19.0981 8.43333 19.0981 8.72083 18.9032L15.9083 14.7135C16.2917 14.5186 16.4833 14.2263 16.4833 13.8366V5.16477C16.4833 4.67759 16.2917 4.38528 15.9083 4.28785L8.72083 0.0981013C8.43333 0.000665441 8.05 0.000665441 7.66667 0.0981013L0.575 4.28785Z" fill="#03363D"/>
<path d="M14.4708 7.69739C11.1167 7.69739 8.33749 10.6205 8.33749 14.2256V14.4205H8.04999V14.2256C8.04999 10.6205 5.27082 7.79482 1.91666 7.69739C1.91666 7.89226 1.91666 8.18457 1.91666 8.37944C1.91666 11.2051 3.64166 13.5435 5.94166 14.5179C6.70832 14.8102 7.47499 14.9076 8.24166 14.9076C9.00832 14.9076 9.77499 14.8102 10.5417 14.5179C12.9375 13.641 14.5667 11.2051 14.5667 8.37944C14.5667 8.18457 14.5667 7.89226 14.4708 7.69739Z" fill="white"/>
<path d="M8.24166 8.08718C9.35313 8.08718 10.2542 7.17109 10.2542 6.04103C10.2542 4.91097 9.35313 3.99487 8.24166 3.99487C7.13018 3.99487 6.22916 4.91097 6.22916 6.04103C6.22916 7.17109 7.13018 8.08718 8.24166 8.08718Z" fill="white"/>
<path d="M20.9875 4.38462C20.9875 4.18974 21.1792 3.99487 21.3708 3.99487H22.7125C22.9042 3.99487 23.0958 4.18974 23.0958 4.38462V8.57436L26.9292 4.18975C27.025 4.09231 27.1208 3.99487 27.2167 3.99487H28.75C28.9417 3.99487 29.0375 4.09231 29.1333 4.28718C29.1333 4.38462 29.1333 4.48205 29.0375 4.57949L25.1083 9.15897L29.325 14.3231C29.4208 14.5179 29.4208 14.7128 29.2292 14.8103C29.1333 14.8103 29.1333 14.9077 29.0375 14.9077H27.4083C27.3125 14.9077 27.2167 14.9077 27.1208 14.8103L23.0958 9.74359V14.4205C23.0958 14.6154 22.9042 14.8103 22.7125 14.8103H21.3708C21.1792 14.8103 20.9875 14.6154 20.9875 14.4205V4.38462Z" fill="#03363D"/>
<path d="M30.3792 4.38459C30.3792 4.18972 30.5708 4.09229 30.6666 4.09229H31.9125C32.1041 4.09229 32.2 4.28716 32.2 4.38459V8.18459C32.5833 7.89229 33.1583 7.59998 34.0208 7.59998C36.225 7.59998 36.8958 9.15895 36.8958 11.0102V14.6154C36.8958 14.8102 36.7041 14.9077 36.6083 15.0051H35.3625C35.1708 15.0051 35.075 14.8102 35.075 14.6154V11.0102C35.075 10.0359 34.5958 9.45126 33.8291 9.45126C32.9666 9.45126 32.5833 9.93844 32.3916 10.7179V14.6154C32.3916 14.8102 32.2958 15.0051 32.0083 15.0051H30.6666C30.475 15.0051 30.3792 14.8102 30.3792 14.6154V4.38459Z" fill="#03363D"/>
<path d="M40.7292 10.3282C41.2083 10.3282 41.5917 10.4256 42.0708 10.5231C42.0708 9.64613 41.8792 9.15895 41.1125 9.15895C40.4417 9.15895 39.7708 9.25639 39.1 9.45126C38.9083 9.54869 38.7167 9.35382 38.7167 9.15895L38.525 8.37946C38.4292 8.18459 38.525 7.98972 38.7167 7.98972C39.4833 7.79485 40.3458 7.59998 41.1125 7.59998C43.3167 7.59998 43.7958 8.76921 43.7958 10.7179V14.6154C43.7958 14.8102 43.6042 14.9077 43.5083 15.0051H43.0292C42.9333 15.0051 42.8375 14.9077 42.7416 14.7128L42.55 14.2256C41.975 14.8102 41.2083 15.1025 40.3458 15.1025C38.9083 15.1025 37.95 14.2256 37.95 12.6666C37.95 11.3025 38.9083 10.3282 40.7292 10.3282ZM40.7292 13.5436C41.3042 13.5436 41.8791 13.0564 41.975 12.7641V11.6923C41.6875 11.5948 41.3042 11.4974 40.9208 11.4974C40.1542 11.4974 39.675 11.8872 39.675 12.4718C39.7708 13.1538 40.1542 13.5436 40.7292 13.5436Z" fill="#03363D"/>
<path d="M45.425 8.08718C45.425 7.89231 45.6167 7.79487 45.7125 7.69744H46.2875C46.3833 7.69744 46.575 7.79487 46.575 7.89231L46.8625 8.57436C47.4375 7.89231 48.3 7.50256 49.1625 7.50256C51.3667 7.50256 51.9417 9.06154 51.9417 10.7179V14.4205C51.9417 14.6154 51.75 14.7128 51.6542 14.8103H50.4083C50.2167 14.8103 50.1208 14.6154 50.1208 14.4205V10.7179C50.1208 9.84103 49.7375 9.25641 48.875 9.25641C48.2042 9.25641 47.5333 9.64615 47.3417 10.3282V14.4205C47.3417 14.7128 47.2458 14.8103 46.8625 14.8103H45.7125C45.5208 14.8103 45.425 14.6154 45.425 14.4205V8.08718Z" fill="#03363D"/>
<path d="M55.5833 14.4205L60.2792 3.9949C60.375 3.89746 60.4708 3.89746 60.5667 3.89746H60.7583C60.8542 3.89746 60.95 3.9949 61.0458 4.09233L65.7417 14.518C65.8375 14.6154 65.7417 14.8103 65.6458 14.9077C65.55 14.9077 65.55 14.9077 65.4542 14.9077H64.1125C63.9208 14.9077 63.825 14.8103 63.6333 14.6154L62.8667 12.959H58.3625L57.5958 14.6154C57.5 14.8103 57.3083 14.9077 57.1167 14.9077H55.775C55.5833 14.9077 55.4875 14.8103 55.4875 14.6154C55.4875 14.518 55.5833 14.518 55.5833 14.4205ZM62.1 11.1077L60.5667 7.69746H60.4708L58.9375 11.1077H62.1Z" fill="#03363D"/>
<path d="M69.575 7.59998C70.6292 7.59998 71.4917 8.08715 72.1625 8.76921C72.3542 8.96408 72.2583 9.15895 72.0667 9.25639L71.3958 9.93844C71.2042 10.1333 71.1083 10.0359 70.9167 9.841C70.6292 9.54869 70.15 9.25639 69.4792 9.25639C68.425 9.25639 67.6583 10.1333 67.6583 11.2051C67.6583 12.2769 68.425 13.1538 69.4792 13.1538C70.2458 13.1538 70.6292 12.7641 71.0125 12.3743C71.1083 12.2769 71.3 12.1795 71.4917 12.2769L72.1625 12.8615C72.3542 13.0564 72.45 13.1538 72.2583 13.3487C71.6833 14.3231 70.725 14.8102 69.4792 14.8102C67.4667 14.8102 65.7417 13.2513 65.7417 11.1077C65.8375 9.15895 67.4667 7.59998 69.575 7.59998Z" fill="#03363D"/>
<path d="M76.0916 10.3282C76.5708 10.3282 76.9541 10.4256 77.4333 10.5231C77.4333 9.64613 77.2416 9.15895 76.475 9.15895C75.8041 9.15895 75.1333 9.25639 74.4625 9.45126C74.2708 9.54869 74.0791 9.35382 74.0791 9.15895L73.8875 8.37946C73.7916 8.18459 73.8875 7.98972 74.0791 7.98972C74.8458 7.79485 75.7083 7.59998 76.475 7.59998C78.6791 7.59998 79.1583 8.76921 79.1583 10.7179V14.6154C79.1583 14.8102 78.9666 14.9077 78.8708 15.0051H78.3916C78.2958 15.0051 78.2 14.9077 78.1041 14.7128L77.9125 14.2256C77.3375 14.8102 76.5708 15.1025 75.7083 15.1025C74.2708 15.1025 73.3125 14.2256 73.3125 12.6666C73.2166 11.3025 74.2708 10.3282 76.0916 10.3282ZM76.0916 13.5436C76.6666 13.5436 77.2416 13.0564 77.3375 12.7641V11.6923C77.05 11.5948 76.6666 11.4974 76.2833 11.4974C75.5166 11.4974 75.0375 11.8872 75.0375 12.4718C75.0375 13.1538 75.4208 13.5436 76.0916 13.5436Z" fill="#03363D"/>
<path d="M83.8541 7.59998C84.4291 7.59998 85.0041 7.69741 85.5792 7.89229V4.38459C85.5792 4.18972 85.7708 4.09229 85.9625 4.09229H87.2083C87.4 4.09229 87.4958 4.28716 87.4958 4.38459V14.5179C87.4958 14.7128 87.3041 14.8102 87.2083 14.9077H86.6333C86.4416 14.9077 86.3458 14.8102 86.25 14.5179L86.0583 13.9333C85.4833 14.6154 84.6208 15.0051 83.7583 15.0051C81.8416 15.0051 80.4041 13.4461 80.4041 11.3025C80.4041 9.15895 81.7458 7.59998 83.8541 7.59998ZM85.5792 9.74357C85.1 9.45126 84.6208 9.35382 84.1416 9.35382C82.9916 9.35382 82.4166 10.3282 82.4166 11.3025C82.4166 12.2769 82.9916 13.2513 84.0458 13.2513C84.9083 13.2513 85.4833 12.6666 85.5792 12.2769V9.74357Z" fill="#03363D"/>
<path d="M92.1916 7.59998C94.0125 7.59998 95.45 8.96408 95.45 10.9128C95.45 11.0102 95.45 11.3025 95.45 11.4C95.45 11.5948 95.2583 11.6923 95.1625 11.6923H90.6583C90.6583 12.5692 91.425 13.3487 92.3833 13.3487C92.9583 13.3487 93.4375 13.1538 93.9166 12.8615C94.1083 12.7641 94.3 12.6666 94.3958 12.8615L94.9708 13.641C95.0666 13.7384 95.0666 13.9333 94.9708 14.0307C94.9708 14.0307 94.9708 14.0307 94.875 14.0307C94.1083 14.7128 93.2458 15.0051 92.2875 15.0051C90.1791 15.0051 88.7416 13.3487 88.7416 11.3025C88.6458 9.25639 90.0833 7.59998 92.1916 7.59998ZM93.5333 10.4256C93.5333 9.74357 92.9583 9.15895 92.1916 9.15895C91.3291 9.15895 90.7541 9.64613 90.6583 10.4256H93.5333Z" fill="#03363D"/>
<path d="M96.6 8.08718C96.6 7.89231 96.7916 7.79487 96.8875 7.69744H97.4625C97.5583 7.69744 97.75 7.79487 97.75 7.89231L98.0375 8.57436C98.5166 7.89231 99.3791 7.50256 100.146 7.50256C101.2 7.50256 101.679 7.89231 102.254 8.57436C102.542 8.28205 103.212 7.50256 104.554 7.50256C106.758 7.50256 107.333 8.9641 107.333 10.8154V14.5179C107.333 14.7128 107.142 14.9077 106.95 14.9077H105.704C105.512 14.9077 105.417 14.7128 105.417 14.5179V10.8154C105.417 9.93846 105.033 9.35385 104.171 9.35385C103.117 9.35385 102.829 10.1333 102.829 10.1333C102.829 10.1333 102.829 10.5231 102.829 10.8154V14.6154C102.829 14.8103 102.637 14.9077 102.542 15.0051H101.296C101.104 15.0051 101.008 14.9077 100.912 14.7128V11.0103C100.912 10.1333 100.625 9.54872 99.7625 9.54872C98.9 9.54872 98.6125 10.1333 98.4208 10.6205V14.7128C98.4208 14.9077 98.2291 15.0051 98.1333 15.1026H96.8875C96.6958 15.1026 96.6 14.9077 96.6 14.7128V8.08718Z" fill="#03363D"/>
<path d="M108.004 8.18469C107.908 7.89238 108.004 7.69751 108.292 7.69751H109.729C109.825 7.69751 110.017 7.79495 110.017 7.89238L111.262 12.1796L112.892 7.89238C112.987 7.69751 113.083 7.69751 113.371 7.69751H114.617C114.808 7.69751 114.904 7.79495 115 7.98982C115 8.08725 115 8.08725 115 8.18469L110.879 18.318C110.783 18.4155 110.687 18.5129 110.592 18.5129H109.154C108.962 18.5129 108.867 18.4155 108.771 18.2206C108.771 18.1232 108.771 18.1232 108.771 18.0257L110.208 14.4206L108.004 8.18469Z" fill="#03363D"/>
</g>
<defs>
<clipPath id="clip0">
<rect width="115" height="19" fill="white"/>
</clipPath>
</defs>
</svg>
