<svg width="115" height="33" viewBox="0 0 115 33" fill="none" xmlns="http://www.w3.org/2000/svg">
<g clip-path="url(#clip0)">
<path d="M7.10002 17.1036C6.90002 17.1036 6.60002 17.1036 6.40002 17.1036C4.70002 17.4055 3.60002 18.9146 3.90002 20.625C4.10002 22.2347 5.80002 23.6433 7.40002 23.7439C7.60002 23.7439 7.70002 23.7439 7.90002 23.7439C9.60002 23.4421 10.1 21.6311 9.80002 19.8201C9.40002 17.9085 8.00002 17.2042 7.10002 17.1036ZM8.80002 21.9329C8.60002 22.1341 8.40002 22.2347 8.10002 22.2347C7.60002 22.2347 7.20002 21.8323 7.30002 21.3292C7.30002 21.0274 7.40002 20.7256 7.50002 20.4238C7.70002 20.0213 7.50002 19.6189 7.20002 19.4177C7.00002 19.3171 6.70002 19.2164 6.50002 19.3171C6.30002 19.3171 6.10002 19.5183 5.90002 19.7195C5.80002 19.8201 5.70002 20.0213 5.70002 20.2225V20.3232C5.60002 20.5244 5.50002 20.625 5.40002 20.5244C5.30002 20.5244 5.30002 20.4238 5.30002 20.4238C5.20002 19.9207 5.40002 19.3171 5.80002 18.9146C6.10002 18.6128 6.60002 18.4116 7.10002 18.5122C7.60002 18.6128 8.00002 18.9146 8.30002 19.3171C8.50002 19.8201 8.50002 20.5244 8.20002 21.0274C8.20002 21.0274 8.20002 21.128 8.10002 21.128C8.00002 21.3292 8.00002 21.5305 8.10002 21.7317C8.20002 21.8323 8.30002 21.9329 8.50002 21.9329C8.60002 21.9329 8.60002 21.9329 8.70002 21.9329C8.80001 21.9329 8.90001 21.9329 8.90001 21.9329C8.80001 21.7317 8.80002 21.8323 8.80002 21.9329Z" fill="white"/>
<path d="M29.4 25.253C29.8 24.3476 30 23.3415 30 22.3354C30 21.128 29.3 20.625 28.9 20.625C28.9 20.625 28.8 20.2226 28.7 19.9207C28.6 19.7195 28.6 19.5183 28.5 19.2165C28.9 18.7134 29 18.1098 28.9 17.5061C28.8 17.003 28.6 16.6006 28.3 16.2988C27.7 15.7957 26.9 15.3933 26.1 15.1921C26 15.1921 25.6 15.0915 25.5 14.9909C25.5 14.9909 25.5 13.6829 25.4 13.0793C25.4 12.4756 25.3 11.9726 25.1 11.3689C24.9 10.564 24.5 9.85976 23.9 9.2561C25.3 7.74695 26.2 6.13719 26.2 4.72866C26.2 2.01219 22.9 1.20732 18.8 2.91768L17.9 3.32012L16.3 1.81098C11.7 -2.21341 -2.8 13.8841 1.8 17.8079L2.8 18.7134C2.5 19.4177 2.4 20.2226 2.5 21.0274C2.6 22.1341 3.2 23.2409 4.1 23.9451C4.9 24.75 6 25.1524 7.2 25.1524C9 29.2774 13.1 31.8933 17.9 31.9939C23.2 32.0945 27.6 29.6799 29.4 25.253ZM30.4 20.3232C30.8 20.9268 31.1 21.6311 31 22.3354C31 23.4421 30.7 24.5488 30.3 25.6555C29.4 27.9695 27.7 29.7805 25.6 31.0884C23.4 32.3963 20.9 33 18.4 33C18.2 33 18.1 33 17.9 33C15.4 32.8994 13 32.1951 10.9 30.8872C9 29.6799 7.5 28.0701 6.5 26.0579C5.4 25.8567 4.3 25.3537 3.4 24.5488C2.3 23.6433 1.6 22.3354 1.5 20.9268C1.4 20.2226 1.5 19.5183 1.6 18.9146L1.1 18.5122C0.5 17.9085 0 17.003 0 15.8963C0 14.8902 0.1 13.7835 0.5 12.878C1.5 10.2622 3.7 7.04268 6.4 4.42683C7.7 3.21951 9 2.21341 10.5 1.30793C11.7 0.503049 13.1 0.10061 14.6 0C15.5 0 16.4 0.301829 17.2 0.905488C17.2 0.905488 17.8 1.50915 18.3 2.0122C18.4 2.0122 18.5 1.91159 18.5 1.91159C19.9 1.30793 21.3 1.0061 22.8 0.905488C25.6 0.905488 27.3 2.41463 27.3 4.72866C27.3 6.13719 26.6 7.74695 25.3 9.2561C25.6 9.75915 25.9 10.3628 26.1 10.9665C26.3 11.5701 26.4 12.2744 26.4 12.878C26.4 13.1799 26.4 13.5823 26.4 13.9848C27.3 14.186 28.2 14.689 28.9 15.2927C29.4 15.7957 29.7 16.3994 29.8 17.1037C29.9 17.8079 29.8 18.5122 29.5 19.1159C29.5 19.2165 29.6 19.3171 29.6 19.3171C29.6 19.4177 29.6 19.5183 29.7 19.5183C30 19.9207 30.2 20.122 30.4 20.3232Z" fill="white"/>
<path d="M27.2 19.0152C27.6 18.7134 27.7 18.2103 27.7 17.7073C27.7 17.506 27.6 17.2042 27.4 17.1036C26.9 16.7012 26.3 16.3993 25.6 16.2987C25.3 16.1981 25.1 16.1981 24.9 16.0975C24.5 15.9969 24.3 15.8963 24.3 15.0914C24.3 14.7896 24.2 13.6829 24.2 13.1798C24.2 12.3749 24.1 11.2682 23.4 10.7652C23.2 10.6646 23 10.564 22.8 10.564C22.7 10.564 22.6 10.564 22.5 10.564C22.2 10.6646 21.8 10.8658 21.6 11.067C21 11.6707 20.1 11.9725 19.2 11.8719C18.7 11.8719 18.2 11.7713 17.6 11.7713C17.5 11.7713 17.4 11.7713 17.3 11.7713C15.8 11.7713 14.5 12.9786 14.3 14.4877C14 16.8018 15.6 18.0091 16.1 18.7134C16.2 18.814 16.2 18.9146 16.2 19.0152C16.2 19.1158 16.1 19.2164 16 19.317C14.7 20.8262 14.2 22.939 14.7 24.8506C14.8 25.0518 14.8 25.3536 14.9 25.5548C16.1 28.3719 19.8 29.7804 23.5 28.5731C24 28.3719 24.4 28.1707 24.9 27.9695C25.7 27.567 26.4 27.064 27 26.3597C27.9 25.3536 28.6 24.1463 28.8 22.8384C28.9 22.1341 28.7 21.8323 28.5 21.7316C28.3 21.631 28.2 21.631 28 21.631C27.9 21.0274 27.7 20.5243 27.5 19.9207L27.2 19.0152Z" fill="white"/>
<path d="M21.2 7.94811C21.3 7.94811 21.3 7.8475 21.2 7.8475C20.3 7.44506 19.4 7.14323 18.4 7.14323C18.4 7.14323 18.3 7.14323 18.3 7.04262C18.5 6.8414 18.6 6.64018 18.8 6.53957V6.43896C17.6 6.53957 16.5 6.94201 15.4 7.64628H15.3C15.4 7.34445 15.5 7.04262 15.7 6.74079V6.64018C14.2 7.44506 13 8.55177 11.9 9.75909V9.8597C11.9 9.8597 11.9 9.8597 12 9.8597C13.2 8.95421 14.6 8.35055 16.1 8.04872C17.8 7.64628 19.5 7.64628 21.2 7.94811Z" fill="white"/>
<path d="M16.9 3.82312C16.9 3.82312 15.6 2.31397 15.3 2.21336C12.9 1.6097 7.89999 5.13104 4.69999 9.75909C3.39999 11.6707 1.49999 14.8902 2.39999 16.6006C2.69999 17.003 3.09999 17.3048 3.49999 17.6067C4.09999 16.8018 4.99999 16.2987 5.99999 16.0975C7.29999 12.4756 9.49999 9.35665 12.4 7.04263C13.8 5.83531 15.3 4.72861 16.9 3.82312Z" fill="white"/>
<path d="M8.69999 21.8323C8.69999 21.8323 8.69999 21.9329 8.69999 22.0335C8.59999 22.2347 8.29999 22.4359 7.99999 22.3353C7.49999 22.2347 7.19999 21.8323 7.19999 21.4298C7.19999 21.128 7.29999 20.8262 7.39999 20.5243C7.59999 20.1219 7.39999 19.7195 7.09999 19.5182C6.89999 19.4176 6.69999 19.317 6.39999 19.4176C6.19999 19.4176 5.99999 19.6189 5.89999 19.8201C5.79999 19.9207 5.69999 20.1219 5.69999 20.3231V20.4237C5.59999 20.625 5.49999 20.7256 5.39999 20.7256C5.39999 20.7256 5.29999 20.7256 5.29999 20.625C5.19999 20.0213 5.39999 19.5182 5.79999 19.1158C6.09999 18.814 6.59999 18.6128 7.09999 18.6128C7.59999 18.7134 7.99999 19.0152 8.19999 19.4176C8.39999 20.0213 8.39999 20.625 8.09999 21.128C8.09999 21.128 8.09999 21.2286 7.99999 21.2286C7.89999 21.4298 7.89999 21.6311 7.99999 21.8323C8.09999 21.9329 8.19999 22.0335 8.39999 22.0335C8.49999 22.0335 8.49999 22.0335 8.59999 22.0335C8.49999 21.7317 8.59999 21.7317 8.69999 21.8323ZM30 22.3353C30 23.3414 29.7 24.3475 29.4 25.253C27.6 29.5792 23.3 32.0945 18.1 31.8932C13.3 31.7926 9.19999 29.1768 7.39999 25.0518C6.29999 25.0518 5.19999 24.5487 4.39999 23.8445C3.49999 23.1402 2.99999 22.0335 2.79999 20.9268C2.69999 20.1219 2.79999 19.317 3.09999 18.6128L2.09999 17.7073C-2.50001 13.7835 11.9 -2.31407 16.5 1.71032L18.1 3.21946C18.1 3.21946 18.9 2.81702 19 2.81702C23 1.10666 26.3 1.91154 26.3 4.628C26.3 6.03654 25.4 7.64629 24 9.15544C24.6 9.7591 25 10.4634 25.2 11.2682C25.4 11.7713 25.4 12.375 25.5 12.9786C25.5 13.5823 25.6 14.8902 25.6 14.8902C25.6 14.8902 26 14.9908 26.2 15.0914C27 15.2926 27.8 15.6951 28.4 16.1981C28.7 16.5 29 17.003 29 17.4054C29.1 18.0091 28.9 18.6128 28.6 19.1158C28.7 19.317 28.8 19.5182 28.8 19.8201C28.9 20.2225 29 20.5243 29 20.5243C29.3 20.625 30 21.128 30 22.3353ZM9.69999 19.9207C9.39999 17.9085 7.99999 17.2042 7.09999 17.1036C6.89999 17.1036 6.59999 17.1036 6.39999 17.1036C4.69999 17.4054 3.79999 18.814 3.99999 20.7256C4.29999 22.4359 5.69999 23.7439 7.39999 23.8445C7.59999 23.8445 7.69999 23.8445 7.89999 23.8445C9.49999 23.6432 9.89999 21.7317 9.69999 19.9207ZM12.5 7.04263C13.9 5.83532 15.4 4.82922 17 3.92373C17 3.92373 15.8 2.41458 15.4 2.31397C13 1.71032 7.99999 5.23166 4.79999 9.7591C3.49999 11.6707 1.59999 14.8902 2.49999 16.6006C2.79999 17.003 3.19999 17.3048 3.59999 17.6067C4.19999 16.8018 5.09999 16.1981 6.09999 15.9969C7.29999 12.5762 9.59999 9.35666 12.5 7.04263ZM17.5 23.1402C17.6 23.6432 18 24.1463 18.6 24.2469C18.9 24.3475 19.2 24.4481 19.5 24.4481C23.2 25.0518 26.6 22.939 27.4 22.4359C27.5 22.4359 27.5 22.4359 27.4 22.5365C27.4 22.5365 27.4 22.6371 27.3 22.6371C26.4 23.8445 23.8 25.253 20.5 25.253C19.1 25.253 17.6 24.75 17.1 23.9451C16.3 22.7378 17.1 20.9268 18.4 21.128C18.4 21.128 18.9 21.2286 19 21.2286C21.1 21.4298 23.3 21.128 25.2 20.2225C27.1 19.317 27.8 18.4115 27.7 17.6067C27.7 17.4054 27.6 17.1036 27.4 17.003C26.9 16.6006 26.3 16.2987 25.6 16.1981C25.3 16.0975 25.1 16.0975 24.9 15.9969C24.5 15.8963 24.3 15.7957 24.3 14.9908C24.3 14.689 24.2 13.5823 24.2 13.0792C24.2 12.2743 24.1 11.1676 23.4 10.6646C23.2 10.564 23 10.4634 22.8 10.4634C22.7 10.4634 22.6 10.4634 22.5 10.4634C22.2 10.564 21.8 10.7652 21.6 10.9664C21 11.5701 20.1 11.8719 19.2 11.7713C18.7 11.7713 18.2 11.6707 17.6 11.6707C17.5 11.6707 17.4 11.6707 17.3 11.6707C15.8 11.6707 14.5 12.878 14.3 14.3871C14 16.7012 15.6 17.9085 16.1 18.5121C16.2 18.6128 16.2 18.7134 16.2 18.814C16.2 18.9146 16.1 19.0152 16 19.1158C14.7 20.625 14.2 22.7378 14.7 24.6493C14.8 24.8506 14.8 25.0518 14.9 25.3536C16.1 28.1707 19.8 29.4786 23.5 28.2713C24 28.0701 24.4 27.8689 24.9 27.6676C25.7 27.2652 26.4 26.7621 27 26.0579C27.9 25.1524 28.6 23.8445 28.8 22.5365C28.9 21.8323 28.7 21.5304 28.5 21.4298C28.3 21.3292 28.2 21.3292 28 21.3292C27.9 20.7256 27.7 20.2225 27.5 19.6189C26.5 20.4237 25.3 21.0274 24 21.3292C22.5 21.7317 20.9 21.9329 19.4 21.8323C18.4 21.7317 17.7 21.4298 17.5 22.2347C19 22.7378 20.6 22.939 22.2 22.7378C22.2 22.7378 22.3 22.7378 22.3 22.8384C22.3 22.8384 22.3 22.939 22.2 22.939C22.4 23.2408 20.5 24.0457 17.5 23.1402ZM12.1 9.85971C13.3 8.95422 14.7 8.35056 16.2 8.04873C17.9 7.64629 19.6 7.64629 21.2 8.04873C21.3 8.04873 21.3 7.94812 21.2 7.94812C20.3 7.54568 19.4 7.24385 18.4 7.24385C18.4 7.24385 18.3 7.24385 18.4 7.14324C18.6 6.94202 18.7 6.7408 18.9 6.64019V6.53959C17.7 6.64019 16.6 7.04263 15.6 7.7469H15.5C15.6 7.44507 15.7 7.14324 15.9 6.84141V6.7408C14.4 7.44507 13.1 8.55178 12.1 9.85971C12 9.85971 12 9.7591 12.1 9.85971C12.1 9.85971 12 9.85971 12.1 9.85971ZM21.7 17.6067C21.9 17.7073 22.2 17.7073 22.3 17.5061C22.4 17.3048 22.3 17.1036 22 17.003C21.8 16.9024 21.5 16.9024 21.4 17.1036C21.3 17.3048 21.5 17.5061 21.7 17.6067ZM22.5 14.689C22.6 14.9908 22.7 15.2926 22.9 15.5945C23.1 15.5945 23.3 15.5945 23.5 15.5945C23.6 15.192 23.6 14.8902 23.5 14.4878C23.4 13.7835 23.2 13.381 22.7 13.4817C22.4 13.5823 22.4 14.0853 22.5 14.689ZM23.4 16.2987C23.1 16.1981 22.8 16.3993 22.8 16.7012C22.7 17.003 22.9 17.3048 23.2 17.3048C23.5 17.4054 23.8 17.2042 23.8 16.9024V16.8018C23.8 16.5 23.6 16.2987 23.4 16.2987Z" fill="#03363D"/>
<path d="M16.6 16.1981C16.5 16.1981 16.5 16.1981 16.5 16.0975C16.5 15.9969 16.7 15.7957 16.8 15.6951C17.4 15.2926 18.1 15.192 18.7 15.4939C19 15.5945 19.2 15.7957 19.4 16.0975C19.5 16.1981 19.5 16.2987 19.4 16.2987C19.3 16.3993 19.2 16.2987 18.9 16.1981C18.6 15.9969 18.2 15.9969 17.8 15.9969C17.5 15.9969 17 16.0975 16.6 16.1981ZM19.4 16.8018C19.2 16.5 18.8 16.3993 18.5 16.5C18.2 16.5 18 16.6006 17.8 16.8018C17.7 16.9024 17.6 17.003 17.6 17.1036C17.6 17.1036 17.6 17.1036 17.6 17.2042C17.6 17.2042 17.6 17.2042 17.7 17.2042C17.8 17.2042 17.9 17.2042 18 17.1036C18.4 17.003 18.8 16.9024 19.2 17.003C19.4 17.003 19.5 17.003 19.5 17.003C19.4 16.8018 19.4 16.8018 19.4 16.8018Z" fill="#03363D"/>
<path d="M18.9 16.9024C19 16.5 19 16.0975 18.9 15.5945C18.8 14.8902 18.5 14.5884 18.1 14.5884C17.7 14.689 17.7 15.192 17.8 15.8963C17.9 16.1981 18 16.5 18.2 16.8018C18.5 17.3048 18.7 17.2042 18.9 16.9024Z" fill="#03363D"/>
<path d="M110.4 19.7195C109.6 19.7195 109.1 18.7134 109.1 17.4055C109.1 16.0976 109.7 15.0915 110.4 15.0915C111.3 15.0915 111.7 15.8964 111.7 17.4055C111.7 18.9147 111.4 19.7195 110.4 19.7195ZM111.3 12.2744C110 12.2744 108.9 13.0793 108.5 14.2866C108.3 14.7897 108.3 14.8903 108.1 14.8903C107.9 14.8903 108.1 14.4878 108.2 14.0854C108.3 13.5823 108.3 12.9787 108.3 12.4756H105.9V24.247H109.2V20.5244C109.6 21.3293 110.5 21.933 111.4 21.933C113.8 21.933 115 19.9208 115 17.1037C115 13.9848 113.6 12.2744 111.3 12.2744ZM86.6 12.4756V21.6311H89.9V12.4756C89.4 12.6769 88.8 12.8781 88.2 12.7775C87.6 12.8781 87.1 12.7775 86.6 12.4756ZM82.4 12.2744C80.5 12.2744 79.7 14.0854 79.6 14.3872C79.5 14.6891 79.4 14.8903 79.3 14.8903C79.1 14.8903 79.2 14.4878 79.3 14.2866C79.6 13.2805 79.8 12.1738 79.8 11.0671C79.8 10.5641 79.8 10.1616 79.7 9.65857H76.8V21.6311H80.1V17.1037C80.1 16.3994 80.4 15.0915 81.2 15.0915C81.9 15.0915 82.1 15.5945 82.1 16.6006V21.6311H85.4V16.8019C85.5 14.4878 85.1 12.2744 82.4 12.2744ZM70.5 17.1037C70.5 16.2988 71.3 15.4939 72.7 15.4939C73.8 15.4939 74.8 15.7958 75.7 16.3994V13.1799C75.7 13.1799 74.7 12.2744 72.3 12.2744C69.8 12.2744 67.7 13.7836 67.7 16.9025C67.7 20.0214 69.6 21.8323 72.3 21.8323C73.5 21.8323 74.7 21.4299 75.7 20.625V17.6067C74.8 18.2104 73.8 18.5122 72.7 18.6128C71.1 18.7134 70.5 18.0092 70.5 17.1037ZM63.5 9.75918H66.8V21.7317H63.5V9.75918ZM53.2 19.5183C52.4 19.7195 52 19.4177 52 18.9147C52 18.2104 52.7 17.9086 53.8 17.9086C54.3 17.9086 54.7 17.9086 54.7 17.9086C54.5 18.7134 54 19.3171 53.2 19.5183ZM54.1 12.2744C52.6 12.2744 51.1 12.5763 49.7 13.1799V15.8964C49.7 15.8964 51.7 14.6891 53.4 14.6891C54.7 14.6891 54.9 15.3933 54.8 15.997C54.3 15.8964 53.8 15.8964 53.3 15.8964C50.6 15.8964 49.2 17.1037 49.2 19.1159C49.2 21.0275 50.7 21.8323 52 21.8323C53.3 21.8323 54.5 21.1281 55 19.9208C55.2 19.5183 55.2 19.2165 55.4 19.2165C55.6 19.2165 55.5 19.4177 55.5 19.8202C55.5 20.4238 55.5 21.0275 55.6 21.5305H58.1V17.0031C58.1 14.3872 57.1 12.2744 54.1 12.2744ZM101.7 12.2744C100.6 12.375 99.6 13.0793 99.2 14.186C99 14.5884 99 14.8903 98.8 14.8903C98.6 14.8903 98.7 14.4878 98.6 13.9848C98.3 12.8781 97.3 12.1738 96.2 12.2744C94.7 12.2744 94 13.5823 93.7 14.2866C93.5 14.7897 93.5 14.8903 93.3 14.8903C93.1 14.8903 93.3 14.4878 93.4 14.0854C93.5 13.5823 93.5 12.9787 93.5 12.4756H91V21.6311H94.3V17.1037C94.3 16.1982 94.7 15.0915 95.3 15.0915C96 15.0915 96.2 15.6952 96.2 16.7013V21.7317H99.5V17.1037C99.5 16.2988 99.8 15.0915 100.5 15.0915C101.3 15.0915 101.4 15.8964 101.4 16.7013V21.7317H104.7V16.2988C104.8 13.8842 103.9 12.2744 101.7 12.2744ZM45.3 12.2744C44.2 12.375 43.2 13.0793 42.8 14.186C42.6 14.5884 42.6 14.8903 42.4 14.8903C42.2 14.8903 42.3 14.5884 42.2 13.9848C41.9 12.8781 40.9 12.1738 39.8 12.2744C38.3 12.2744 37.6 13.5823 37.3 14.2866C37.1 14.7897 37.1 14.8903 36.9 14.8903C36.7 14.8903 36.9 14.4878 37 14.0854C37.1 13.5823 37.1 12.9787 37.1 12.4756H34.7V21.6311H38V17.1037C38 16.1982 38.4 15.0915 39 15.0915C39.7 15.0915 39.9 15.6952 39.9 16.7013V21.7317H43.2V17.1037C43.2 16.2988 43.5 15.0915 44.2 15.0915C45 15.0915 45.1 15.8964 45.1 16.7013V21.7317H48.4V16.2988C48.4 13.8842 47.5 12.2744 45.3 12.2744ZM86.2 10.9665C86.2 10.2622 87.1 9.65857 88.2 9.65857C89.3 9.65857 90.2 10.2622 90.2 10.9665C90.2 11.6708 89.3 12.2744 88.2 12.2744C87.1 12.2744 86.2 11.6708 86.2 10.9665ZM60.8 12.8781C61.4 12.8781 61.9 12.7775 62.5 12.5763V21.7317H59.2V12.5763L60.8 12.8781ZM58.8 10.9665C58.8 10.2622 59.7 9.65857 60.8 9.65857C61.9 9.65857 62.8 10.2622 62.8 10.9665C62.8 11.6708 61.9 12.2744 60.8 12.2744C59.7 12.2744 58.8 11.6708 58.8 10.9665Z" fill="#03363D"/>
</g>
<defs>
<clipPath id="clip0">
<rect width="115" height="33" fill="white"/>
</clipPath>
</defs>
</svg>
