<svg width="91" height="25" viewBox="0 0 91 25" fill="none" xmlns="http://www.w3.org/2000/svg">
<g clip-path="url(#clip0)">
<path d="M6.98702 20.6647H18.087C18.187 20.6647 18.187 20.7639 18.087 20.7639C16.887 21.3591 14.987 23.0456 14.987 23.0456C13.787 24.2361 12.787 25.0298 10.687 25.0298H0.0870239C-0.0129761 25.0298 -0.0129761 24.9305 0.0870239 24.9305C1.28702 24.2361 2.98702 22.5496 2.98702 22.5496C3.68702 21.7559 5.18702 20.6647 6.98702 20.6647ZM79.787 20.6647H90.887C90.987 20.6647 90.987 20.7639 90.887 20.7639C89.587 21.3591 87.887 23.0456 87.887 23.0456C86.587 24.2361 85.587 25.0298 83.587 25.0298H72.987C72.887 25.0298 72.887 24.9305 72.987 24.9305C74.187 24.2361 75.887 22.5496 75.887 22.5496C76.487 21.7559 77.987 20.6647 79.787 20.6647ZM25.187 20.6647H36.287C36.387 20.6647 36.387 20.7639 36.287 20.7639C35.087 21.3591 33.287 23.0456 33.287 23.0456C32.087 24.2361 31.087 25.0298 28.987 25.0298H18.287C18.187 25.0298 18.187 24.9305 18.187 24.9305C19.387 24.2361 21.087 22.5496 21.087 22.5496C21.887 21.7559 23.387 20.6647 25.187 20.6647ZM43.387 20.6647H54.487C54.587 20.6647 54.587 20.7639 54.487 20.7639C53.287 21.3591 51.487 23.0456 51.487 23.0456C50.287 24.2361 49.287 25.0298 47.187 25.0298H36.487C36.387 25.0298 36.387 24.9305 36.387 24.9305C37.587 24.2361 39.287 22.5496 39.287 22.5496C40.087 21.7559 41.587 20.6647 43.387 20.6647ZM61.587 20.6647H72.687C72.787 20.6647 72.787 20.7639 72.587 20.7639C71.387 21.3591 69.587 23.0456 69.587 23.0456C68.387 24.2361 67.387 25.0298 65.287 25.0298H54.687C54.587 25.0298 54.587 24.9305 54.687 24.9305C55.887 24.2361 57.587 22.5496 57.587 22.5496C58.287 21.7559 59.787 20.6647 61.587 20.6647Z" fill="#03363D"/>
<path d="M64.587 0.0300293C57.587 0.0300293 52.887 3.50225 52.887 8.76019C52.887 13.5221 57.187 16.7959 63.487 16.7959C65.587 16.7959 67.387 16.4983 69.487 16.0023V11.9348C67.987 13.5221 66.187 14.1173 64.287 14.1173C60.587 14.1173 57.887 11.7364 57.887 8.36336C57.987 4.99035 60.687 2.51019 64.387 2.51019C66.387 2.51019 67.987 3.20463 69.287 4.49431V0.426855C67.987 0.228442 66.287 0.0300293 64.587 0.0300293ZM12.387 2.90701C14.987 2.90701 18.087 3.40304 19.387 4.49431V0.625267H0.987V4.49431C2.287 3.50225 5.087 3.00622 8.087 3.00622V13.4229C8.087 15.0102 7.987 15.407 7.287 16.2007H13.187C12.487 15.407 12.387 15.0102 12.387 13.4229V2.90701ZM31.187 6.67685C30.187 7.07368 28.287 7.17289 27.287 7.17289H25.687V2.90701H27.787C29.687 2.90701 32.787 3.30384 34.087 4.2959V0.625267H20.587C21.287 1.31971 21.387 1.81574 21.387 3.40304V13.4229C21.387 15.0102 21.287 15.407 20.687 16.2007H34.887V12.4308C32.887 13.8197 29.187 13.8197 27.687 13.8197H25.587V9.45463H27.087C28.087 9.45463 29.987 9.55384 31.087 9.95066L31.187 6.67685ZM51.087 1.02209C48.887 0.327648 46.187 0.0300293 43.987 0.0300293C40.087 0.0300293 36.287 1.22051 36.287 5.18876C36.287 12.034 47.987 8.36336 47.987 12.6292C47.987 14.0181 45.887 14.6134 44.287 14.6134C41.387 14.6134 39.287 14.1173 36.587 12.53V16.0023C38.587 16.6967 41.187 16.9943 44.087 16.9943C48.087 16.9943 51.887 15.903 51.887 11.8356C51.887 4.69273 40.287 7.86733 40.287 4.39511C40.287 3.00622 42.187 2.41098 43.787 2.41098C46.487 2.41098 49.487 3.20463 51.087 4.79193V1.02209ZM80.987 0.228442C74.687 0.228442 70.287 3.70066 70.287 8.56178C70.287 13.3237 74.287 16.5975 80.187 16.5975C86.587 16.5975 90.887 13.3237 90.887 8.26416C90.887 3.50225 86.887 0.228442 80.987 0.228442ZM80.487 14.2165C77.187 14.2165 74.987 11.6372 74.987 8.46257C74.987 5.28797 77.187 2.7086 80.487 2.7086C83.787 2.7086 85.987 5.28797 85.987 8.46257C85.987 11.6372 83.887 14.2165 80.487 14.2165Z" fill="#03363D"/>
</g>
<defs>
<clipPath id="clip0">
<rect width="91" height="25" fill="white"/>
</clipPath>
</defs>
</svg>
