<svg width="115" height="18" viewBox="0 0 115 18" fill="none" xmlns="http://www.w3.org/2000/svg">
<path d="M0 18H104.538L115 0H0V18Z" fill="#03363D"/>
<path d="M19.843 6.42539C19.4107 6.0809 18.8919 5.99477 18.3731 5.99477C17.7678 5.99477 17.249 6.42539 17.249 6.85602C17.249 7.20051 17.422 7.37277 17.8543 7.4589L18.546 7.63116C19.4107 7.97565 19.9295 8.32016 19.9295 9.09528C19.9295 10.5594 18.6325 11.679 16.6438 11.679C15.6927 11.679 15.0009 11.5068 14.4821 11.0761L15.1739 10.0426C15.6927 10.3871 16.2115 10.5594 16.9897 10.5594C17.8543 10.5594 18.3731 10.1287 18.3731 9.43975C18.3731 9.09525 18.2002 8.92301 17.6814 8.75076L16.9897 8.5785C16.2979 8.40626 15.6927 7.97565 15.6927 7.20054C15.6927 5.82254 16.9897 4.78906 18.546 4.78906C19.4107 4.78906 20.1024 4.96127 20.6212 5.39189L19.843 6.42539Z" fill="white"/>
<path d="M23.4521 7.76499H22.5875L22.0687 10.2626C22.0687 10.4349 22.0687 10.6071 22.0687 10.6932C22.0687 11.0377 22.1551 11.0377 22.501 11.0377C22.5875 11.0377 22.8469 11.0377 23.0198 10.9516V11.6406C22.5875 11.7267 22.3281 11.8128 21.9822 11.8128C21.2905 11.8128 20.8581 11.4683 20.8581 10.9516C20.8581 10.7794 20.8581 10.521 20.9446 10.3487L21.4634 7.67889H20.9446L21.1175 6.81764H21.6363C21.7228 6.30089 21.8093 5.95635 21.9822 5.69798L23.3657 5.35352C23.2792 5.78414 23.0198 6.30089 22.9333 6.81764H24.0574L23.4521 7.76499Z" fill="white"/>
<path d="M26.5338 7.7362C26.1879 7.7362 26.015 7.7362 25.5826 8.16682C25.1503 8.68357 24.9774 9.63096 24.9774 10.2338C24.9774 10.6645 25.0639 10.8367 25.4097 10.8367C25.842 10.8367 26.2744 10.406 26.3608 10.1477L26.8796 7.8223C26.8796 7.8223 26.7067 7.7362 26.5338 7.7362ZM28.0037 8.33908L27.5714 10.2338C27.4849 10.6645 27.5714 10.9228 27.7443 11.1812L26.7067 12.0424C26.5338 11.9563 26.3608 11.6118 26.2744 11.4395C25.842 11.8702 25.5826 12.0424 24.8909 12.0424C23.9398 12.0424 23.5075 11.5257 23.5075 10.4922C23.5075 9.37257 23.9398 8.33909 24.5451 7.6501C25.0639 7.13335 25.6691 6.96106 26.5338 6.96106C27.139 6.96106 27.8308 7.0472 28.1766 7.30558C28.2631 7.3917 28.1766 7.90846 28.0037 8.33908Z" fill="white"/>
<path d="M30.5263 6.64478C30.6127 6.81702 30.6127 7.24765 30.6127 7.50602C31.0451 7.0754 31.5639 6.81698 32.2556 6.81698C32.8609 6.81698 33.2067 7.24764 33.2067 7.76438C33.2067 7.93663 33.2067 8.28112 33.1203 8.45337L32.4285 11.8122H31.1315L31.8233 8.53947C31.8233 8.36722 31.9097 8.19497 31.9097 8.10885C31.9097 7.9366 31.8233 7.76438 31.5639 7.76438C31.218 7.76438 30.9586 7.93662 30.5263 8.45337L29.8345 11.7261H28.5376L29.2293 8.36726C29.3157 7.85052 29.3157 7.4199 29.2293 7.0754L30.5263 6.64478Z" fill="white"/>
<path d="M36.2219 6.09092L35.5302 9.70816C35.4437 10.311 35.3572 10.5694 35.3572 10.6555C35.3572 10.8278 35.4437 11 35.5302 11H35.6166L35.7031 11.689C35.5302 11.7751 35.1843 11.7752 34.8384 11.7752C34.1467 11.7752 33.8008 11.3445 33.8008 10.9139C33.8008 10.7417 33.8873 10.3971 33.8873 9.96652L34.579 6.34928C34.6655 5.74641 34.752 5.31583 34.6655 4.88521L36.049 4.45459C36.3948 4.79909 36.3948 5.48805 36.2219 6.09092Z" fill="white"/>
<path d="M38.4371 8.83056C38.9559 8.83056 39.5612 8.65832 39.5612 8.14157C39.5612 7.79707 39.4747 7.62479 39.0424 7.62479C38.5236 7.62479 38.1777 7.96928 38.0048 8.7444C38.1777 8.83052 38.3507 8.83056 38.4371 8.83056ZM40.3394 11.242C39.7341 11.6727 39.0424 11.8449 38.3507 11.8449C37.2266 11.8449 36.4484 11.242 36.4484 10.0363C36.4484 9.00277 36.8808 7.9693 37.5725 7.36643C38.0913 6.93581 38.6101 6.76355 39.2153 6.76355C40.1665 6.76355 40.8582 7.1942 40.8582 8.14157C40.8582 9.08894 39.9935 9.7779 38.3507 9.7779C38.0048 9.7779 37.7454 9.6918 37.7454 9.6918C37.7454 9.6918 37.7454 10.0363 37.7454 10.1224C37.7454 10.6392 38.0913 10.9837 38.6101 10.9837C39.0424 10.9837 39.5612 10.8114 39.9935 10.4669L40.3394 11.242Z" fill="white"/>
<path d="M42.8977 6.77466L43.0706 9.61675C43.0706 9.96125 43.0706 10.6503 43.0706 10.6503C43.0706 10.6503 43.4165 9.789 43.6759 9.18613L44.9729 6.86076H46.3563L43.5029 11.856C42.9841 12.8033 42.6383 13.234 42.2059 13.4924C41.7736 13.6646 41.3413 13.923 40.909 13.923L40.736 13.0617C41.0819 12.9756 41.3413 12.8895 41.6007 12.7172C42.033 12.545 42.1195 12.2866 42.4653 11.7699H42.1195C42.1195 11.4254 42.033 10.8225 42.033 10.3919L41.6007 6.94692L42.8977 6.77466Z" fill="white"/>
<path d="M48.3873 7.80684H49.252C49.6843 7.80684 49.7708 7.72076 49.9437 7.63464C50.1167 7.54851 50.3761 7.20397 50.3761 6.9456C50.3761 6.51498 50.2031 6.34277 49.6843 6.34277H48.8197L48.3873 7.80684ZM47.8685 10.7351H48.7332C49.0791 10.7351 49.252 10.649 49.4249 10.5628C49.7708 10.3906 49.9437 9.95998 49.9437 9.61549C49.9437 9.18486 49.7708 9.0126 49.0791 9.0126H48.1279L47.8685 10.7351ZM50.1167 5.0509C51.1542 5.0509 51.9324 5.56761 51.9324 6.51498C51.9324 7.11785 51.5001 7.89299 50.549 8.15136C51.1542 8.23748 51.5866 8.75423 51.5866 9.44323C51.5866 9.87385 51.4136 10.4767 50.9813 10.9935C50.4625 11.5102 49.9437 11.6824 48.9061 11.6824H46.3986L47.8685 5.0509H50.1167Z" fill="white"/>
<path d="M54.4406 6.09092L53.7488 9.70816C53.6624 10.311 53.5759 10.5694 53.5759 10.6555C53.5759 10.8278 53.6624 11 53.7488 11H53.8353L53.9218 11.689C53.7488 11.7751 53.403 11.7752 53.0571 11.7752C52.3654 11.7752 52.0195 11.3445 52.0195 10.9139C52.0195 10.7417 52.106 10.3971 52.106 9.96652L52.7977 6.34928C52.8842 5.74641 52.9706 5.31583 52.8842 4.88521L54.2676 4.45459C54.6135 4.79909 54.6135 5.48805 54.4406 6.09092Z" fill="white"/>
<path d="M57.7093 7.7362C57.3635 7.7362 57.1905 7.7362 56.7582 8.16682C56.3259 8.68357 56.1529 9.63096 56.1529 10.2338C56.1529 10.6645 56.2394 10.8367 56.5853 10.8367C57.0176 10.8367 57.4499 10.406 57.5364 10.1477L58.0552 7.8223C58.0552 7.8223 57.7958 7.7362 57.7093 7.7362ZM59.1792 8.33908L58.7469 10.2338C58.6604 10.6645 58.7469 10.9228 58.9198 11.1812L57.8823 12.0424C57.7093 11.9563 57.5364 11.6118 57.4499 11.4395C57.1041 11.8702 56.7582 12.0424 56.1529 12.0424C55.2018 12.0424 54.7695 11.5257 54.7695 10.4922C54.7695 9.37257 55.2018 8.33909 55.8071 7.6501C56.3259 7.13335 56.9311 6.96106 57.7958 6.96106C58.401 6.96106 59.0928 7.0472 59.4386 7.30558C59.3522 7.3917 59.2657 7.90846 59.1792 8.33908Z" fill="white"/>
<path d="M63.2611 8.08549C63.0881 7.91324 62.7423 7.74097 62.5693 7.74097C62.3964 7.74097 62.137 7.82712 61.9641 8.08549C61.6182 8.51611 61.2723 9.5496 61.2723 10.2386C61.2723 10.7553 61.4453 10.9276 61.8776 10.9276C62.2235 10.9276 62.5693 10.7554 62.9152 10.4109L63.3475 11.2721C62.8287 11.7027 62.3099 11.875 61.5317 11.875C60.4941 11.875 59.8889 11.2721 59.8889 10.2386C59.8889 8.94673 60.4077 7.91322 61.1859 7.31035C61.6182 6.87973 62.137 6.70752 62.7423 6.70752C63.1746 6.70752 63.6934 6.87973 64.0393 7.31035L63.2611 8.08549Z" fill="white"/>
<path d="M69.2412 6.83411L67.2524 8.90107L68.6359 11.7432H67.0795L66.0419 8.90107L67.6848 6.83411H69.2412ZM66.6472 4.59485C66.7336 4.7671 66.7336 5.4561 66.4742 6.4896L65.3502 11.8293H64.0532L65.1773 6.40349C65.2637 5.7145 65.3502 5.36997 65.2637 5.02547L66.6472 4.59485Z" fill="white"/>
<path d="M72.7204 6.74496C72.7204 6.40046 72.5474 6.22823 72.2016 6.22823C71.7692 6.22823 71.5098 6.57273 71.5098 7.08948C71.5098 7.26172 71.5963 7.52009 71.9422 7.77846C72.3745 7.52009 72.7204 7.08945 72.7204 6.74496ZM70.5587 10.2761C70.5587 10.7067 70.9046 10.9651 71.5098 10.9651C71.9422 10.9651 72.3745 10.8789 72.5474 10.6206L71.2504 9.15648C70.7316 9.32873 70.5587 9.75934 70.5587 10.2761ZM74.7091 8.46744C74.6226 9.07032 74.2768 9.84545 74.0174 10.3622L75.1414 11.7402H73.4986L73.1527 11.3096C72.7204 11.6541 72.1151 11.8263 71.164 11.8263C69.7805 11.8263 69.0888 11.2235 69.0888 10.2761C69.0888 9.41484 69.6076 8.72586 70.6452 8.29524C70.2128 7.86462 70.1264 7.6062 70.1264 7.17558C70.1264 6.14209 71.0775 5.28088 72.461 5.28088C73.4121 5.28088 74.0174 5.79762 74.0174 6.40049C74.0174 7.08949 73.6715 7.69237 72.5474 8.29524L72.461 8.38134L73.3256 9.41484C73.4986 9.07035 73.6715 8.55359 73.6715 8.38134H74.7956C74.7091 8.38134 74.7091 8.46744 74.7091 8.46744Z" fill="white"/>
<path d="M77.3243 10.5631H77.9295C78.5348 10.5631 78.9671 10.2186 79.2265 9.87409C79.8318 8.92672 79.9183 7.54873 79.9183 7.29036C79.9183 6.68749 79.7453 6.17075 78.8807 6.17075H78.2754L77.3243 10.5631ZM78.7077 5.05115C79.8318 5.05115 80.5235 5.13723 80.8694 5.65398C81.2152 6.0846 81.3882 6.51524 81.3882 7.29036C81.3882 8.32385 80.9558 9.78797 80.0912 10.7353C79.3995 11.4243 78.7077 11.7688 77.2378 11.7688H75.5949L77.0649 5.13725L78.7077 5.05115Z" fill="white"/>
<path d="M83.7876 8.83056C84.3064 8.83056 84.9117 8.65832 84.9117 8.14157C84.9117 7.79707 84.8252 7.62479 84.3929 7.62479C83.8741 7.62479 83.5282 7.96928 83.3553 8.7444C83.4417 8.83052 83.6147 8.83056 83.7876 8.83056ZM85.6899 11.242C85.0846 11.6727 84.3929 11.8449 83.7011 11.8449C82.5771 11.8449 81.7989 11.242 81.7989 10.0363C81.7989 9.00277 82.2312 7.9693 82.9229 7.36643C83.4417 6.93581 83.9605 6.76355 84.5658 6.76355C85.5169 6.76355 86.2087 7.1942 86.2087 8.14157C86.2087 9.08894 85.344 9.7779 83.7011 9.7779C83.3553 9.7779 83.0959 9.6918 83.0959 9.6918C83.0959 9.6918 83.0959 10.0363 83.0959 10.1224C83.0959 10.6392 83.4417 10.9837 83.9605 10.9837C84.3929 10.9837 84.9117 10.8114 85.344 10.4669L85.6899 11.242Z" fill="white"/>
<path d="M90.1084 8.08549C89.9354 7.91324 89.5896 7.74097 89.4166 7.74097C89.2437 7.74097 88.9843 7.82712 88.8114 8.08549C88.4655 8.51611 88.1196 9.5496 88.1196 10.2386C88.1196 10.7553 88.2926 10.9276 88.7249 10.9276C89.0708 10.9276 89.4166 10.7554 89.7625 10.4109L90.1948 11.2721C89.676 11.7027 89.1572 11.875 88.379 11.875C87.3414 11.875 86.7362 11.2721 86.7362 10.2386C86.7362 8.94673 87.255 7.91322 88.0332 7.31035C88.4655 6.87973 88.9843 6.70752 89.5896 6.70752C90.0219 6.70752 90.5407 6.87973 90.8866 7.31035L90.1084 8.08549Z" fill="white"/>
<path d="M96.001 6.83411L94.0123 8.90107L95.3958 11.7432H93.8394L92.8018 8.90107L94.4447 6.83411H96.001ZM93.4935 4.59485C93.58 4.7671 93.58 5.4561 93.3206 6.4896L92.1965 11.8293H90.8995L92.0236 6.40349C92.1101 5.7145 92.1965 5.36997 92.1101 5.02547L93.4935 4.59485Z" fill="white"/>
<path d="M97.7638 8.83056C98.2826 8.83056 98.8879 8.65832 98.8879 8.14157C98.8879 7.79707 98.8014 7.62479 98.3691 7.62479C97.8503 7.62479 97.5044 7.96928 97.3315 8.7444C97.5044 8.83052 97.6774 8.83056 97.7638 8.83056ZM99.7525 11.242C99.1473 11.6727 98.4556 11.8449 97.7638 11.8449C96.6398 11.8449 95.8616 11.242 95.8616 10.0363C95.8616 9.00277 96.2939 7.9693 96.9856 7.36643C97.5044 6.93581 98.0232 6.76355 98.6285 6.76355C99.5796 6.76355 100.271 7.1942 100.271 8.14157C100.271 9.08894 99.4067 9.7779 97.7638 9.7779C97.418 9.7779 97.1586 9.6918 97.1586 9.6918C97.1586 9.6918 97.1586 10.0363 97.1586 10.1224C97.1586 10.6392 97.5044 10.9837 98.0232 10.9837C98.4556 10.9837 98.9744 10.8114 99.4067 10.4669L99.7525 11.242Z" fill="white"/>
<path d="M102.552 6.64478C102.638 6.81702 102.638 7.16152 102.638 7.50602C103.071 7.0754 103.589 6.81698 104.022 6.81698C104.195 6.81698 104.368 6.81701 104.454 6.90314L103.935 8.02275C103.849 7.93662 103.762 7.93664 103.503 7.93664C103.33 7.93664 102.984 8.02272 102.552 8.53947L101.86 11.8122H100.563L101.255 8.53947C101.341 7.9366 101.341 7.506 101.255 7.1615L102.552 6.64478Z" fill="white"/>
</svg>
